# xmcd
#
# Track frame offsets: 
#        150
#        17016
#        29655
#        40443
#        52538
#        63759
#        75317
#        89265
#        101354
#        115765
#        132713
#        147277
#
# Disc length: 2176 seconds
#
# Revision: 0
# Processed by: cddbd v1.5.2PL0 Copyright (c) Steve Scherf et al.
# Submitted via: ExactAudioCopy v0.99pb4
#
DISCID=93087e0c
DTITLE=Various Artist - Back to Back
DYEAR=1993
DGENRE=Comedy
TTITLE0=Ray Stevens - Ahab, The Arab
TTITLE1=Ray Stevens - Harry The Hairy Ape
TTITLE2=Ray Stevens - Jeremiah Peabody's Poly Unsaturated Quick Dissol
TTITLE2=ving Fast Acting Pleasant Tasting Green and Purple Pills
TTITLE3=Ray Stevens - Speed Ball
TTITLE4=Ray Stevens - Just One of Life's Little Tragedies
TTITLE5=Ray Stevens - Funny Man
TTITLE6=Jim Stafford - Spiders and Snakes
TTITLE7=Jim Stafford - Wildwood Weed
TTITLE8=Jim Stafford - My Girl Bill
TTITLE9=Jim Stafford - Swamp Witch
TTITLE10=Jim Stafford - Your Bulldog Drinks Champagne
TTITLE11=Jim Stafford - A Real Good Time
EXTD=
EXTT0=
EXTT1=
EXTT2=
EXTT3=
EXTT4=
EXTT5=
EXTT6=
EXTT7=
EXTT8=
EXTT9=
EXTT10=
EXTT11=
PLAYORDER=
